HIERARCHY
ROOT Hips
{
    OFFSET 0.000000 0.000000 0.000000
    CHANNELS 6 Xposition Yposition Zposition Zrotation Xrotation Yrotation
    JOINT Chest
    {
        OFFSET -0.000000 0.078598 0.000000
        CHANNELS 3 Zrotation Xrotation Yrotation
        JOINT Chest2
        {
            OFFSET -0.000000 0.230468 0.000000
            CHANNELS 3 Zrotation Xrotation Yrotation
            JOINT Neck
            {
                OFFSET -0.000000 0.249638 0.000000
                CHANNELS 3 Zrotation Xrotation Yrotation
                JOINT Head
                {
                    OFFSET -0.000000 0.103998 0.019170
                    CHANNELS 3 Zrotation Xrotation Yrotation
                    End Site
                    {
                        OFFSET -0.000000 0.191701 0.000000
                    }
                }
            }
            JOINT LeftCollar
            {
                OFFSET 0.038274 0.205938 -0.001496
                CHANNELS 3 Zrotation Xrotation Yrotation
                JOINT LeftShoulder
                {
                    OFFSET 0.132388 0.000000 0.000000
                    CHANNELS 3 Zrotation Xrotation Yrotation
                    JOINT LeftElbow
                    {
                        OFFSET 0.250301 0.000000 0.000000
                        CHANNELS 3 Zrotation Xrotation Yrotation
                        JOINT LeftWrist
                        {
                            OFFSET 0.285291 0.000000 0.000000
                            CHANNELS 3 Zrotation Xrotation Yrotation
                            End Site
                            {
                                OFFSET 0.000000 -0.143776 0.000000
                            }
                        }
                    }
                }
            }
            JOINT RightCollar
            {
                OFFSET -0.038406 0.205938 -0.001496
                CHANNELS 3 Zrotation Xrotation Yrotation
                JOINT RightShoulder
                {
                    OFFSET -0.132388 0.000000 0.000000
                    CHANNELS 3 Zrotation Xrotation Yrotation
                    JOINT RightElbow
                    {
                        OFFSET -0.250301 0.000000 0.000000
                        CHANNELS 3 Zrotation Xrotation Yrotation
                        JOINT RightWrist
                        {
                            OFFSET -0.285291 0.000000 0.000000
                            CHANNELS 3 Zrotation Xrotation Yrotation
                            End Site
                            {
                                OFFSET -0.000000 -0.143776 0.000000
                            }
                        }
                    }
                }
            }
        }
    }
    JOINT LeftHip
    {
        OFFSET 0.095851 0.000000 0.000000
        CHANNELS 3 Zrotation Xrotation Yrotation
        JOINT LeftKnee
        {
            OFFSET -0.000000 -0.406444 0.000000
            CHANNELS 3 Zrotation Xrotation Yrotation
            JOINT LeftAnkle
            {
                OFFSET -0.000000 -0.408443 0.000000
                CHANNELS 3 Zrotation Xrotation Yrotation
                JOINT LeftToe
                {
                    OFFSET -0.000000 -0.062303 0.143776
                    CHANNELS 3 Zrotation Xrotation Yrotation
                    End Site
                    {
                        OFFSET -0.000000 0.000000 0.038340
                    }
                }
            }
        }
    }
    JOINT RightHip
    {
        OFFSET -0.095851 0.000000 0.000000
        CHANNELS 3 Zrotation Xrotation Yrotation
        JOINT RightKnee
        {
            OFFSET -0.000000 -0.406444 0.000000
            CHANNELS 3 Zrotation Xrotation Yrotation
            JOINT RightAnkle
            {
                OFFSET -0.000000 -0.408443 0.000000
                CHANNELS 3 Zrotation Xrotation Yrotation
                JOINT RightToe
                {
                    OFFSET -0.000000 -0.062303 0.143776
                    CHANNELS 3 Zrotation Xrotation Yrotation
                    End Site
                    {
                        OFFSET -0.000000 0.000000 0.038340
                    }
                }
            }
        }
    }
}
MOTION
Frames:    7
Frame Time:    0.016667
0.096065    0.848789    0.361914    4.403319    2.358274    -160.549835    0.916966    15.448332    2.362181    -2.073185    8.082573    0.975514    5.291618    26.725334    -0.722800    -7.376157    13.288195    2.984819    5.875682    -9.474139    -24.551737    -17.531258    21.203482    -37.274990    29.083519    -4.552768    -29.551445    121.762527    1.843353    -3.817497    -7.225339    -17.007784    28.513201    39.078594    47.734829    50.072617    -6.811542    -17.163778    100.738899    -92.131454    -2.749414    -9.190719    18.869156    -23.884516    4.650917    -10.803123    26.325109    5.754838    -12.190032    -8.430083    4.292685    0.000000    0.000000    0.000000    -3.540481    -5.456762    -3.815252    10.723955    21.673367    -6.248088    -4.323613    -24.928314    -18.630270    0.000000    0.000000    0.000000    
0.103544    0.848361    0.363030    4.434544    2.252122    -159.757172    0.719341    15.659058    2.219896    -1.759941    7.870858    0.894522    5.522171    26.507006    -0.831255    -7.375168    13.440115    2.956325    6.025543    -9.723651    -24.799133    -17.263506    20.971642    -37.362045    28.685261    -4.296631    -29.540222    121.650261    1.520106    -3.864945    -7.113236    -16.940573    28.386227    39.264065    47.436348    49.920517    -6.584500    -16.931116    100.992378    -91.873596    -2.311106    -9.174494    19.316103    -24.808443    4.851768    -11.001577    26.973700    5.604711    -12.542704    -8.475957    4.285075    0.000000    0.000000    0.000000    -3.229994    -6.005456    -3.657192    11.233662    22.072632    -6.936625    -4.958848    -25.061134    -19.221691    0.000000    0.000000    0.000000    
0.109760    0.848184    0.364068    4.299313    2.125322    -158.991562    0.506935    15.906116    2.127257    -1.562062    7.650202    0.837954    5.467071    26.441545    -0.856666    -7.043073    13.380424    2.822183    6.244334    -9.618800    -25.016296    -16.676643    21.144653    -37.836590    28.929756    -4.438181    -28.985149    121.669167    1.448109    -3.618623    -7.194711    -16.822964    28.356888    38.157276    47.318924    54.054996    16.913124    -10.418973    107.950943    -126.807526    -0.805453    -2.958777    19.531841    -25.672928    4.989545    -11.582494    27.704212    6.053081    -12.407625    -8.487196    4.604585    0.000000    0.000000    0.000000    -3.257285    -6.400477    -3.509047    11.945848    22.391399    -7.545076    -5.666142    -25.176697    -19.928812    0.000000    0.000000    0.000000    
0.115502    0.847915    0.364938    4.123267    1.963930    -158.346176    0.286734    16.106016    2.031492    -1.482681    7.451591    0.788265    5.460130    26.325630    -0.830946    -7.065460    13.526481    2.854744    6.178999    -9.629908    -25.233845    -16.413149    20.687712    -37.822430    28.608414    -4.238323    -29.167479    121.575623    1.271972    -3.728623    -7.076884    -16.724976    28.493555    39.383091    47.626698    49.635452    -7.802042    -18.116898    100.946785    -91.922798    -2.621623    -8.943624    19.686371    -26.673155    5.159333    -12.292674    28.931490    6.838930    -12.803896    -8.835775    5.457873    0.000000    0.000000    0.000000    -3.280305    -6.812871    -3.728815    12.305601    22.789667    -7.816360    -6.208453    -25.380083    -20.380192    0.000000    0.000000    0.000000    
0.120614    0.847529    0.365357    4.012687    1.896395    -157.748398    0.159981    16.197811    1.993716    -1.396059    7.522960    0.764974    5.377788    26.248852    -0.849435    -7.012253    13.348805    2.778457    6.127197    -9.804854    -25.667484    -16.002665    20.813465    -37.908890    28.607746    -4.384508    -28.752945    121.588440    1.233348    -3.458259    -7.099505    -16.792194    28.613163    39.333141    46.585159    51.448799    1.555080    -16.462202    103.828720    -93.773117    6.003596    -3.447080    19.970644    -27.390120    5.457923    -13.933043    30.095726    9.279765    -11.456034    -9.392732    6.809394    0.000000    0.000000    0.000000    -3.114307    -7.079544    -3.960182    12.360962    23.111839    -8.123871    -6.536882    -25.629187    -20.445650    0.000000    0.000000    0.000000    
0.124838    0.847384    0.365852    3.907297    1.784824    -157.204453    0.116278    16.345306    1.949675    -1.423021    7.425760    0.748845    5.086636    26.170818    -0.785491    -6.698313    13.361765    2.659526    6.367199    -9.664819    -25.740292    -15.970510    20.361612    -38.277782    28.406319    -4.333879    -28.680285    121.660118    1.161705    -3.414702    -7.044775    -16.730188    28.640610    40.179764    46.423679    48.648205    -7.636979    -17.315502    101.299652    -92.506042    -2.512061    -8.264681    20.076139    -28.301338    5.562254    -15.304210    31.869095    11.654799    -9.526687    -10.142763    7.736111    0.000000    0.000000    0.000000    -2.984325    -7.317597    -4.614579    12.160635    23.376900    -8.182218    -6.678347    -25.826258    -20.320618    0.000000    0.000000    0.000000    
0.128224    0.847250    0.365889    3.830172    1.722322    -156.731720    0.109792    16.321476    1.928667    -1.468107    7.643309    0.747211    4.989724    25.962389    -0.749915    -6.697527    13.278265    2.646941    6.468806    -9.778653    -25.885914    -16.007799    19.794497    -38.449081    27.941763    -4.095809    -28.824251    121.616516    1.319342    -3.608892    -6.970010    -16.861589    28.769518    39.684319    46.854904    48.792011    -8.366140    -18.478781    101.057602    -92.149017    -2.492740    -8.619085    20.293465    -28.704590    5.779171    -17.318588    33.077446    14.678154    -6.530001    -11.003694    8.601340    0.000000    0.000000    0.000000    -2.838532    -7.386568    -5.257076    11.921018    23.459595    -8.207271    -6.762945    -26.022913    -20.122297    0.000000    0.000000    0.000000    
